<?xml version="1.0" encoding="UTF-8" standalone="no"?>
<!-- Created with Inkscape (http://www.inkscape.org/) -->

<svg
   xmlns:dc="http://purl.org/dc/elements/1.1/"
   xmlns:cc="http://creativecommons.org/ns#"
   xmlns:rdf="http://www.w3.org/1999/02/22-rdf-syntax-ns#"
   xmlns:svg="http://www.w3.org/2000/svg"
   xmlns="http://www.w3.org/2000/svg"
   xmlns:sodipodi="http://sodipodi.sourceforge.net/DTD/sodipodi-0.dtd"
   xmlns:inkscape="http://www.inkscape.org/namespaces/inkscape"
   width="19.581825mm"
   height="19.581825mm"
   viewBox="0 0 19.581825 19.581825"
   version="1.1"
   id="svg91"
   inkscape:version="0.92.5 (2060ec1f9f, 2020-04-08)"
   sodipodi:docname="drums.svg">
  <defs
     id="defs85" />
  <sodipodi:namedview
     id="base"
     pagecolor="#ffffff"
     bordercolor="#666666"
     borderopacity="1.0"
     inkscape:pageopacity="0.0"
     inkscape:pageshadow="2"
     inkscape:zoom="7.9195959"
     inkscape:cx="36.968661"
     inkscape:cy="34.287781"
     inkscape:document-units="mm"
     inkscape:current-layer="layer1"
     showgrid="false"
     fit-margin-top="0"
     fit-margin-left="0"
     fit-margin-right="0"
     fit-margin-bottom="0"
     inkscape:window-width="1920"
     inkscape:window-height="1020"
     inkscape:window-x="0"
     inkscape:window-y="28"
     inkscape:window-maximized="1" />
  <metadata
     id="metadata88">
    <rdf:RDF>
      <cc:Work
         rdf:about="">
        <dc:format>image/svg+xml</dc:format>
        <dc:type
           rdf:resource="http://purl.org/dc/dcmitype/StillImage" />
        <dc:title></dc:title>
      </cc:Work>
    </rdf:RDF>
  </metadata>
  <g
     inkscape:label="Layer 1"
     inkscape:groupmode="layer"
     id="layer1"
     transform="translate(-120.93808,-186.66615)">
    <path
       inkscape:connector-curvature="0"
       id="path928-3-9"
       style="fill:#fff;fill-opacity:1;fill-rule:nonzero;stroke:none;stroke-width:0.01461942"
       d="m 121.03504,197.362 v 5.39033 c 0,2.21294 5.00744,3.40691 9.71884,3.40691 4.71155,0 9.71885,-1.19397 9.71885,-3.40691 V 197.362 c -1.77802,1.55682 -5.83972,2.38077 -9.71885,2.38077 -3.87897,0 -7.94068,-0.82409 -9.71884,-2.38077" />
    <path
       inkscape:connector-curvature="0"
       id="path930-6-2"
       style="fill:#fff;fill-opacity:1;fill-rule:nonzero;stroke:none;stroke-width:0.01461942"
       d="m 132.19843,195.9331 c -0.18625,0.27689 -0.14985,0.60904 0.0551,0.87453 0.27471,0.35599 0.78609,0.42192 1.14223,0.14707 0.35612,-0.27469 0.42192,-0.78608 0.14721,-1.14222 -0.20496,-0.26548 -0.51695,-0.38492 -0.83199,-0.27498 l -6.02408,-8.04697 c -0.14341,-0.18567 -0.40307,-0.25993 -0.60948,-0.14824 -0.024,0.013 -0.0444,0.0291 -0.065,0.045 -0.0206,0.016 -0.0415,0.0318 -0.0602,0.0515 -0.16039,0.17135 -0.1544,0.44137 -0.0106,0.62703 l 6.25726,7.86715" />
    <path
       inkscape:connector-curvature="0"
       id="path932-1-0"
       style="fill:#fff;fill-opacity:1;fill-rule:nonzero;stroke:none;stroke-width:0.01461942"
       d="m 130.00186,193.9279 -1.20493,1.6096 c -0.31505,-0.10993 -0.62718,0.009 -0.83215,0.27498 -0.27469,0.35614 -0.20876,0.86753 0.14723,1.14222 0.35612,0.27485 0.8675,0.20892 1.14235,-0.14707 0.20483,-0.26549 0.24137,-0.59764 0.0551,-0.87453 l 1.14353,-1.43797 -0.45115,-0.56723" />
    <path
       inkscape:connector-curvature="0"
       id="path934-0-2"
       style="fill:#fff;fill-opacity:1;fill-rule:nonzero;stroke:none;stroke-width:0.01461942"
       d="m 130.75388,198.98973 c 4.71155,0 9.71885,-1.19397 9.71885,-3.40692 0,-1.88692 -3.6414,-3.03235 -7.63515,-3.32899 l -0.71269,0.89603 c 4.62208,0.2155 7.40591,1.49323 7.40591,2.43296 0,1.02936 -3.33893,2.46499 -8.77692,2.46499 -5.43784,0 -8.77691,-1.43563 -8.77691,-2.46499 0,-0.93973 2.78397,-2.21746 7.40605,-2.43296 l -0.71269,-0.89603 c -3.99389,0.29664 -7.63529,1.44207 -7.63529,3.32899 0,2.21295 5.00744,3.40692 9.71884,3.40692" />
    <path
       inkscape:connector-curvature="0"
       id="path936-6-3"
       style="fill:#fff;fill-opacity:1;fill-rule:nonzero;stroke:none;stroke-width:0.01461942"
       d="m 135.56659,188.06594 c 0.14327,-0.18565 0.14928,-0.45568 -0.0106,-0.62702 -0.0188,-0.0199 -0.0395,-0.0357 -0.0602,-0.0515 -0.0206,-0.016 -0.0411,-0.032 -0.065,-0.045 -0.20642,-0.11171 -0.46607,-0.0374 -0.60949,0.14824 l -3.77284,5.0399 0.46915,0.62688 4.04943,-5.09135" />
  </g>
</svg>
