<?xml version="1.0" standalone="no"?>
<!DOCTYPE svg PUBLIC "-//W3C//DTD SVG 20010904//EN"
 "http://www.w3.org/TR/2001/REC-SVG-20010904/DTD/svg10.dtd">
<svg version="1.0" xmlns="http://www.w3.org/2000/svg"
 width="109.000000pt" height="113.000000pt" viewBox="0 0 109.000000 113.000000"
 preserveAspectRatio="xMidYMid meet">

<g transform="translate(0.000000,113.000000) scale(0.100000,-0.100000)"
fill="#fff" stroke="#000">
<path d="M0 565 l0 -565 545 0 545 0 0 565 0 565 -545 0 -545 0 0 -565z m441
161 c27 -70 49 -134 49 -142 0 -9 -8 -12 -22 -10 -13 3 -26 5 -29 5 -4 1 -10
12 -13 26 -6 23 -11 25 -60 25 -50 0 -55 -2 -63 -27 -7 -19 -16 -27 -36 -27
-15 -1 -27 3 -27 9 0 5 21 70 47 143 47 131 48 133 77 130 27 -3 32 -10 77
-132z m329 69 l34 -35 -36 -36 c-37 -37 -58 -38 -58 -3 0 17 -7 19 -78 19 -83
0 -94 3 -85 26 4 10 25 14 79 14 70 0 75 1 84 25 12 33 20 32 60 -10z m34
-246 c30 -24 36 -78 11 -99 -14 -12 -13 -16 6 -37 19 -20 21 -28 13 -60 -12
-49 -41 -63 -131 -63 l-73 0 0 140 0 140 74 0 c59 0 78 -4 100 -21z m-454
-144 c0 -25 0 -25 94 -25 52 0 97 -4 100 -8 13 -22 -15 -31 -99 -34 -85 -3
-90 -4 -93 -25 -5 -32 -23 -29 -62 12 l-35 36 35 34 c42 41 60 44 60 10z"/>
<path d="M346 736 c-10 -26 -16 -50 -13 -52 3 -3 18 -4 34 -2 l30 3 -17 49
-16 49 -18 -47z"/>
<path d="M690 490 c0 -34 3 -40 21 -40 31 0 59 19 59 40 0 21 -28 40 -59 40
-18 0 -21 -6 -21 -40z"/>
<path d="M690 372 l0 -38 43 5 c35 5 43 10 45 30 4 29 -12 41 -55 41 -32 0
-33 -2 -33 -38z"/>
</g>
</svg>
