<?xml version="1.0" encoding="UTF-8"?>
<svg width="136.1mm" height="136.1mm" version="1.1" viewBox="0 0 136.1 136.1" xmlns="http://www.w3.org/2000/svg">
 <g transform="translate(-36.335 -102.39)" fill="#fff"  stroke="#fff">
  <path stroke="#fff" d="m103.51 103.82c-14.118 0.28646-26.752 9.0722-30.45 21.548-0.55963 1.888-1.0872 2.9885-1.6971 3.5391l-0.88491 0.79899v5.833c0 5.7859 0.0066 5.8392 0.83049 6.5831 0.45688 0.41247 1.1499 0.75004 1.5403 0.75004 0.48541 0 0.82238 0.29178 1.0659 0.92247 1.3257 3.4335 4.4036 8.1009 7.1792 10.886l1.5669 1.5724-0.0018 4.2328c-9.08e-4 2.328 0.92325 16.311 2.0537 31.074 1.1305 14.763 1.9844 26.906 1.8976 26.984-0.01075 0.0101-0.24364 0.0578-0.28156 0.0728v1.4335c0 0.0218 0.02265 0.0657 0 0.0655h-6.06e-4c0.0063 0.12825 6.06e-4 0.30736 6.06e-4 0.55599 0 0.0499-0.0018 0.0997-0.0042 0.14967 0.0081 0.015 0.01538 0.0305 0.02247 0.0461 0.07921 0.11596 0.15484 0.23354 0.2165 0.35794 0.3155 0.34368 0.15775 0.44599 0.28393 1.4124 0.0015 0.0115-0.0012 0.0227-0.0054 0.0335 0.0018-6e-3 0.0043-0.013 0.0059-0.0171 0.03656 0.21155 0.03043 0.46717 0.0272 0.69541-0.0021 0.0937-0.0021 0.18741-0.0024 0.28112 0.02501 8e-3 0.07326 5e-3 0.08814 0.0187 0.19596 0.17692 1.0694 9.7347 1.1008 12.046 0.0088 0.64981 0.30861 1.2728 0.84469 1.7567 0.81698 0.73765 0.92551 0.75005 6.599 0.75005 0.55904 0 0.92344 0.0119 1.4356 0.0159 0.29254-0.11201 0.65279-0.17926 1.0825-0.17926h10.115c0.40859 0 0.75414 0.0611 1.0387 0.16333h3.6562c5.9928 0 6.0798-9e-3 6.9-0.75004 0.45687-0.41249 0.83057-1.0654 0.82989-1.4512-2e-3 -1.2104 0.69698-10.317 0.87545-11.422-0.0159-0.12806-0.0254-0.26279-0.0254-0.40688v-3.6279c0-0.38986-8e-3 -0.52758 0.23069-0.72671-2e-3 -0.19109 0.0392-0.42556 0.0502-0.55314-0.0616-0.37592 0.0365-0.69111 0.20111-0.9828 5e-3 -0.16724 0.0304-0.34624 0.055-0.49737 1.2e-4 -2e-3 8e-3 -0.10362 8e-3 -0.10642-9.9e-4 -0.0728-6e-3 -0.34607-3e-3 -0.34998 0.0131-0.0188 0.0206-0.0313 0.0332-0.0496 0.0605-1.016 0.88229-11.921 1.9603-25.977 1.1168-14.563 2.0307-28.406 2.0307-30.763v-4.2857l1.5669-1.5724c2.7756-2.7856 5.8535-7.4529 7.1792-10.886 0.24353-0.63068 0.58052-0.92246 1.0659-0.92246 0.39041 0 1.0834-0.33757 1.5403-0.75004 0.82381-0.74392 0.83109-0.79721 0.83109-6.5831v-5.833l-0.9204-0.8263c-0.65824-0.59151-1.1303-1.5744-1.6596-3.4577-0.76233-2.7127-2.7107-6.5741-4.5801-9.0785-1.8259-2.446-7.0255-6.8051-9.9493-8.341-4.961-2.6059-9.178-3.7889-14.703-4.1247-0.9522-0.0579-1.8998-0.0765-2.8411-0.0575zm-17.162 117.05c-0.0075-0.0111-0.01544-0.0219-0.02308-0.033-0.0015 0.0352-0.0021 0.0702-0.0024 0.10528 0.01488 0.0113 0.02874 0.0266 0.042 0.0438 0.0033-0.036 0.0031-0.0713-0.0054-0.0916-0.0034-8e-3 -0.0075-0.0163-0.01123-0.0245zm-0.02308-0.033c1.88e-4 -4e-3 2.91e-4 -9e-3 6.06e-4 -0.0131-0.06729-0.12407-0.16728-0.23211-0.24607-0.35055 0.077 0.12356 0.16229 0.24305 0.24548 0.36364zm14.86-112.04c0.34419-4e-3 0.42826 0.25737 0.42826 1.108v1.1939h5.4148v-1.1939c0-0.97214 0.11032-1.1745 0.5927-1.0909 4.9876 0.86416 4.8226 0.81092 4.8226 1.5627 0 0.67409 0.12712 0.72215 1.9159 0.72215 2.1472 0 3.5976 0.62393 6.9675 2.9973 1.8873 1.3293 1.9461 1.4141 1.9461 2.8351v1.4654l1.4273 0.0939c1.1993 0.079 1.5547 0.26516 2.2247 1.1638l0.79736 1.0693-2.2247 0.0899-2.2247 0.0904v4.861h5.4148l0.01-1.6042c7e-3 -1.0617 0.11019-1.4489 0.30523-1.1456 0.40562 0.63085 1.7154 4.2848 1.7154 4.7859 0 0.33661-4.6101 0.40802-26.397 0.40802-21.787 0-26.397-0.0714-26.397-0.40802 0-0.50109 1.3092-4.1551 1.7148-4.7859 0.19503-0.30332 0.29847 0.084 0.30522 1.1456l0.01006 1.6042h5.4147v-4.861l-2.2247-0.0904-2.2247-0.0899 0.79736-1.0693c0.67005-0.89861 1.0254-1.0848 2.2247-1.1638l1.4273-0.0939 0.0012-1.4341c0.0012-1.3782 0.07681-1.488 1.9461-2.8386 3.2723-2.3642 4.795-3.0252 6.9663-3.0252 1.7888 0 1.9159-0.048 1.9159-0.72215-3e-6 -0.75177-0.16497-0.69853 4.8226-1.5627 0.0603-0.0105 0.11468-0.0165 0.16386-0.0171zm-10.401 4.7461v4.8889h5.4147v-4.8889h-2.7074zm10.829 0v4.8889h5.4153v-4.8889h-2.708zm10.83 0v4.8889h5.4147v-4.8889h-2.7074zm-21.66 7.3331v4.8889h5.4147v-4.8889h-2.7074zm10.829 0v4.8889h5.4153v-4.8889h-2.708zm10.83 0v4.8889h5.4147v-4.8889h-2.7074zm-36.55 12.222h56.855v4.8889h-56.855v-2.4448zm3.4385 9.7773h49.978l-0.53178 1.2224-0.53177 1.2224h-4.9735v2.4442c0 2.2736 0.0491 2.4442 0.70509 2.4442 0.65362 0 0.62688 0.0897-0.36674 1.2224l-1.0724 1.2224h-36.436l-1.0724-1.2224c-0.99361-1.1326-1.0204-1.2224-0.36674-1.2224 0.65599 0 0.70509-0.17063 0.70509-2.4442v-2.4442h-4.9735l-0.53178-1.2224zm11.452 2.4448v4.8884h5.4147v-4.8884h-2.7074zm10.829 0v4.8884h5.4153v-4.8884h-2.708zm10.83 0v4.8884h5.4147v-4.8884h-2.7074zm-24.367 12.221h32.489v4.8889h-32.489v-2.4442zm0.33835 9.7779h31.811l-6.1e-4 1.1456c-9.1e-4 0.63018-1.0663 15.033-2.3672 32.007-1.3009 16.973-2.3662 31.307-2.3672 31.853h-6e-4l-1e-3 0.99303h-22.336l-0.0018-0.99303c-9.09e-4 -0.54619-1.0663-14.88-2.3673-31.853-1.3009-16.973-2.3662-31.376-2.3673-32.007zm15.906 12.222c-2.1288 0-3.8424 0.69836-5.5952 2.2809-2.1409 1.9329-2.527 3.0777-2.527 7.4964 0 1.8936 0.18533 4.0089 0.41169 4.7006 0.50934 1.5564 3.342 4.2046 5.0031 4.6772 3.1498 0.89638 5.9218 0.26862 8.3031-1.8814 2.1583-1.9486 2.5268-3.0736 2.5234-7.6848-3e-3 -3.1683-0.10458-3.8279-0.79973-5.1758-1.3533-2.624-4.3214-4.4132-7.3194-4.4132zm0 4.8884c0.65938 0 1.3532 0.27728 1.8769 0.75004 0.78202 0.70611 0.83107 0.9483 0.83107 4.1389s-0.0491 3.4328-0.83107 4.1389c-0.52364 0.47277-1.2175 0.75005-1.8769 0.75005-0.65937 0-1.3527-0.27728-1.8763-0.75005-0.78207-0.70609-0.83108-0.9483-0.83108-4.1389s0.049-3.4328 0.83108-4.1389c0.52362-0.47276 1.2169-0.75004 1.8763-0.75004zm17.441 35.718c8e-5 0.0198 9e-5 0.0398 1e-3 0.0614 0.28399 0.28625 0.10114 0.10113 0.25613 0.2578 3e-3 -7e-3 6e-3 -0.014 0.01-0.0211-0.10503-0.11393-0.20235-0.22074-0.26678-0.29819zm0.31173 0.34713c-2e-3 7e-3 -5e-3 0.0133-7e-3 0.0205 0.0462 0.0467 0.0552 0.0548 0.0887 0.0888 2.8e-4 -7e-3 2.3e-4 -0.0137 6.1e-4 -0.0205-0.0282-0.0301-0.0548-0.0592-0.0822-0.0888zm-35.828 0.43251c-0.04771-0.0319-0.10241-0.0529-0.16622-0.0586-1.7845-0.0245-3.26 0.99799 0.16622 0.0586zm0.0763 0.0672c9.07e-4 0.033 0.0033 0.0663 0.0076 0.099 0.0045 0.0336 0.01899-3e-3 0.02838-0.0541-0.01142-0.0158-0.02335-0.0308-0.03609-0.0449zm0.52112 1.6828c-0.0133 0.0336-0.04498 0.0651-0.04259 0.10073 0.0027 0.038 0.02593-0.0519 0.04259-0.10073z"
  stroke-width=".32157"/>
 </g>
</svg>
